<svg width="64" height="64" viewBox="0 0 64 64" fill="none" xmlns="http://www.w3.org/2000/svg">
<path d="M37.2969 31.076C38.2089 31.22 39.0369 31.592 39.7809 32.192C40.5489 32.792 41.1489 33.536 41.5809 34.424C42.0369 35.312 42.2649 36.26 42.2649 37.268C42.2649 38.54 41.9409 39.692 41.2929 40.724C40.6449 41.732 39.6969 42.536 38.4489 43.136C37.2249 43.712 35.7729 44 34.0929 44H24.7329V18.908H33.7329C35.4369 18.908 36.8889 19.196 38.0889 19.772C39.2889 20.324 40.1889 21.08 40.7889 22.04C41.3889 23 41.6889 24.08 41.6889 25.28C41.6889 26.768 41.2809 28.004 40.4649 28.988C39.6729 29.948 38.6169 30.644 37.2969 31.076ZM28.0089 29.744H33.5169C35.0529 29.744 36.2409 29.384 37.0809 28.664C37.9209 27.944 38.3409 26.948 38.3409 25.676C38.3409 24.404 37.9209 23.408 37.0809 22.688C36.2409 21.968 35.0289 21.608 33.4449 21.608H28.0089V29.744ZM33.8049 41.3C35.4369 41.3 36.7089 40.916 37.6209 40.148C38.5329 39.38 38.9889 38.312 38.9889 36.944C38.9889 35.552 38.5089 34.46 37.5489 33.668C36.5889 32.852 35.3049 32.444 33.6969 32.444H28.0089V41.3H33.8049Z" fill="#1A1A1A"/>
<g style="mix-blend-mode:darken">
<circle cx="32" cy="32" r="24.5" stroke="#1A1A1A"/>
</g>
</svg>
